<svg width="312" height="189" viewBox="0 0 312 189" fill="none" xmlns="http://www.w3.org/2000/svg">
<g clip-path="url(#clip0_34_58)">
<path d="M102.212 142.07V146.165L95.8904 145.793L95.9786 142.42L102.212 142.07Z" fill="#ED9DA0"/>
<path d="M104.072 153.238C103.7 155.472 104.444 155.472 98.4949 156.216C92.5457 156.961 94.0293 152.121 94.0293 152.121C94.2781 149.84 94.7769 147.593 95.5168 145.421C96.6326 142.443 102.583 146.165 102.583 146.165C102.583 146.165 104.442 151.005 104.072 153.238Z" fill="#090814"/>
<path d="M65.5148 141.828V145.923L71.8364 145.551L71.7483 142.178L65.5148 141.828Z" fill="#ED9DA0"/>
<path d="M63.6553 152.996C64.027 155.23 63.2832 155.23 69.2324 155.974C75.1815 156.719 73.6948 151.88 73.6948 151.88C73.446 149.598 72.9472 147.351 72.2073 145.179C71.0919 142.201 65.142 145.924 65.142 145.924C65.142 145.924 63.2836 150.763 63.6553 152.996Z" fill="#090814"/>
<path d="M236.183 49.8767H225.856V55.5786H237.283L236.183 49.8767Z" fill="#9F616A"/>
<path d="M242.618 172.398H235.338V182.737H242.618V172.398Z" fill="#9F616A"/>
<path d="M228.249 188.996C231.444 188.996 236.109 188.662 236.145 188.658C237.393 188.77 243.623 189.26 243.933 187.833C244.096 186.875 244.029 185.891 243.738 184.964C243.136 179.002 242.913 178.933 242.781 178.894C242.569 178.832 241.951 179.129 240.945 179.775L240.883 179.816L240.869 179.889C240.852 179.98 240.409 182.169 238.295 181.837C236.849 181.607 236.38 181.287 236.23 181.13C236.386 181.062 236.518 180.951 236.613 180.81C236.692 180.669 236.74 180.513 236.754 180.352C236.767 180.191 236.746 180.029 236.691 179.877C236.396 179.006 236.022 178.163 235.571 177.361L235.477 177.194L227.207 182.782L222.098 184.244C221.908 184.298 221.733 184.394 221.585 184.525C221.438 184.655 221.322 184.818 221.246 185C221.14 185.252 221.116 185.531 221.176 185.798C221.236 186.065 221.377 186.307 221.58 186.49C222.508 187.325 224.354 188.754 226.289 188.933C226.803 188.984 227.485 188.999 228.25 188.999L228.249 188.996Z" fill="#2F2E43"/>
<path d="M222.37 172.398H215.09V182.737H222.37V172.398Z" fill="#9F616A"/>
<path d="M208.001 188.996C211.196 188.996 215.861 188.662 215.897 188.658C217.145 188.77 223.375 189.26 223.685 187.833C223.848 186.875 223.781 185.891 223.49 184.964C222.888 179.002 222.665 178.933 222.533 178.894C222.321 178.832 221.703 179.129 220.697 179.775L220.635 179.816L220.621 179.889C220.604 179.98 220.161 182.169 218.047 181.837C216.601 181.607 216.132 181.287 215.982 181.13C216.138 181.062 216.27 180.951 216.365 180.81C216.444 180.669 216.492 180.513 216.506 180.352C216.519 180.191 216.498 180.029 216.443 179.877C216.149 179.006 215.774 178.163 215.323 177.361L215.229 177.194L206.959 182.782L201.85 184.244C201.66 184.298 201.485 184.394 201.337 184.525C201.19 184.655 201.074 184.818 200.998 185C200.892 185.252 200.868 185.531 200.928 185.798C200.988 186.065 201.129 186.307 201.332 186.49C202.26 187.325 204.106 188.754 206.041 188.933C206.555 188.984 207.237 188.999 208.002 188.999L208.001 188.996Z" fill="#2F2E43"/>
<path d="M143.364 183.532C175.852 183.532 202.19 177.38 202.19 169.792C202.19 162.204 175.852 156.052 143.364 156.052C110.875 156.052 84.5374 162.204 84.5374 169.792C84.5374 177.38 110.875 183.532 143.364 183.532Z" fill="#F2F2F2"/>
<path d="M96.2992 36.7681H75.9335V30.5809C82.3686 26.0978 88.0709 26.4875 95.5719 30.9452L96.2992 36.7681Z" fill="#81201A"/>
<path d="M96.4474 144.487C96.0752 144.486 95.7143 144.358 95.4239 144.125C95.1334 143.892 94.9305 143.567 94.8483 143.204L83.7987 94.9544C83.7744 94.8318 83.7078 94.7217 83.6104 94.6435C83.513 94.5653 83.3911 94.524 83.2663 94.5269H83.2636C83.1382 94.5245 83.0161 94.5666 82.9188 94.6458C82.8216 94.725 82.7555 94.8361 82.7324 94.9595L72.5844 142.884C72.5053 143.251 72.3035 143.58 72.0123 143.816C71.7212 144.052 71.3582 144.181 70.9834 144.183H66.1474C65.9244 144.183 65.7038 144.137 65.4991 144.048C65.2944 143.96 65.1099 143.83 64.9569 143.668C64.804 143.505 64.6858 143.313 64.6095 143.104C64.5333 142.894 64.5007 142.671 64.5136 142.448L68.1161 81.7036L69.565 81.2742H69.5923L98.0522 81.5232L104.114 142.199C104.135 142.416 104.113 142.634 104.049 142.842C103.985 143.049 103.88 143.242 103.741 143.409C103.601 143.576 103.43 143.713 103.237 143.813C103.044 143.913 102.833 143.973 102.617 143.991L96.5772 144.481C96.5341 144.485 96.4908 144.487 96.4474 144.487Z" fill="#2F2E41"/>
<path d="M80.8109 24.5518L88.728 24.0884L89.508 30.2537H79.8834L80.8109 24.5518Z" fill="#ED9DA0"/>
<path d="M79.2231 88.3651C77.6561 88.3846 76.0953 88.1647 74.5945 87.7131C73.2598 87.3104 72.0216 86.6385 70.9559 85.7388C69.8903 84.8391 69.0198 83.7307 68.3981 82.4817C68.2013 82.1059 68.1576 81.6683 68.2764 81.2609C69.2616 77.8952 74.022 60.401 70.9846 46.4936C70.556 44.5616 70.5204 42.563 70.88 40.6169C71.2396 38.6709 71.9871 36.8173 73.0778 35.1667C74.143 33.529 75.5269 32.1228 77.1467 31.032C78.7666 29.9413 80.5893 29.1883 82.5062 28.8179C83.0101 28.7195 83.5163 28.6387 84.0116 28.5778C86.1308 28.3168 88.2813 28.5279 90.3094 29.1961C92.3375 29.8643 94.193 30.973 95.743 32.4428C97.3392 33.9412 98.5847 35.7743 99.3904 37.8109C100.196 39.8475 100.542 42.0373 100.404 44.2234L98.0694 81.7181C98.0533 81.9992 97.9645 82.2713 97.8116 82.5076C97.6587 82.744 97.447 82.9364 97.1973 83.0661C94.5086 84.4763 86.4328 88.3651 79.2231 88.3651Z" fill="#3F3D56"/>
<path d="M78.6085 86.1136C78.3829 86.1131 78.1598 86.0659 77.9533 85.975L61.0059 78.5702C60.6459 78.4157 60.3537 78.1363 60.183 77.7833C60.0124 77.4303 59.9749 77.0275 60.0773 76.649L71.2966 34.2238C71.5052 33.4344 71.869 32.6945 72.3667 32.0476C72.8644 31.4006 73.4861 30.8595 74.1953 30.4559C74.9044 30.0524 75.6869 29.7945 76.4968 29.6974C77.3068 29.6003 78.128 29.6659 78.9123 29.8903L83.3974 31.172L80.2383 84.5699C80.2221 84.8333 80.1427 85.0889 80.007 85.315C79.8712 85.5412 79.683 85.7313 79.4583 85.8692C79.2027 86.0278 78.908 86.1121 78.6073 86.1128L78.6085 86.1136Z" fill="#81201A"/>
<path d="M109.974 76.6485L109.228 73.8345L108.148 69.7426L107.628 67.7804L106.548 63.6995L98.7543 34.2234C98.5465 33.4335 98.1832 32.6931 97.6857 32.0457C97.1882 31.3983 96.5665 30.8568 95.8572 30.4532C95.1478 30.0495 94.3651 29.7918 93.5549 29.695C92.7447 29.5983 91.9233 29.6645 91.139 29.8898L86.6551 31.1735L88.8781 68.7307L89.1074 72.6515L89.2529 75.1232V75.1267L89.4869 79.0257L89.8145 84.5695C89.8292 84.8332 89.9075 85.0893 90.0427 85.3161C90.1778 85.5428 90.3659 85.7335 90.5907 85.8716C90.8155 86.0097 91.0704 86.0913 91.3336 86.1093C91.5968 86.1273 91.8604 86.0812 92.1019 85.975L109.046 78.569C109.406 78.4145 109.699 78.1349 109.869 77.7817C110.04 77.4284 110.077 77.0254 109.974 76.647V76.6485Z" fill="#81201A"/>
<path d="M84.6957 25.6759C89.6289 25.6759 93.628 21.6728 93.628 16.7348C93.628 11.7968 89.6289 7.7937 84.6957 7.7937C79.7625 7.7937 75.7634 11.7968 75.7634 16.7348C75.7634 21.6728 79.7625 25.6759 84.6957 25.6759Z" fill="#ED9DA0"/>
<path d="M107.627 67.7821L89.1059 72.652L88.8766 68.732L106.548 63.6992L107.627 67.7821Z" fill="#CCCCCC"/>
<path d="M109.226 73.836L89.4834 79.0277L89.2494 75.1275V75.1236L108.146 69.7434L109.226 73.836Z" fill="#CCCCCC"/>
<path d="M94.7851 10.1533C93.8573 7.81903 92.1577 5.87398 89.9701 4.64274C87.7825 3.41151 85.2392 2.96859 82.7648 3.38791L85.581 5.66594C82.0819 5.78306 78.3986 5.53319 75.9003 7.98846C76.6955 7.9666 77.738 9.66917 78.5336 9.64731C77.7893 9.70001 77.0728 9.95147 76.4586 10.3755C75.8444 10.7996 75.3551 11.3807 75.0415 12.0585C74.4331 13.4308 74.2908 14.9649 74.6362 16.4259C75.5376 18.5754 76.5858 20.6602 77.7735 22.6654C77.6697 19.1088 84.6649 10.6249 88.0805 11.5107C86.3447 12.1551 84.8384 13.2996 83.7515 14.7999C86.075 13.6263 88.7026 13.1959 91.2786 13.567C91.8666 13.7019 92.4733 13.7358 93.0726 13.6673C93.4402 13.5946 93.783 13.4288 94.0683 13.1856C94.3536 12.9425 94.5718 12.6302 94.7021 12.2785C94.8324 11.9269 94.8705 11.5476 94.8126 11.1771C94.7548 10.8065 94.603 10.457 94.3717 10.1619L94.7851 10.1533Z" fill="#2F2E41"/>
<path d="M80.9454 69.5763L80.7161 73.4234L62.5504 68.008L63.6151 63.9802L80.9454 69.5763Z" fill="#CCCCCC"/>
<path d="M80.5667 75.9581L62.0305 69.9692L60.9638 74.0088L80.3413 79.7868L80.5667 75.9581Z" fill="#CCCCCC"/>
<path d="M62.3538 79.9814C62.9065 79.8371 63.4207 79.5731 63.8605 79.2083C64.3002 78.8434 64.6546 78.3865 64.8989 77.8697C65.1431 77.3528 65.2711 76.7887 65.274 76.217C65.2768 75.6453 65.1544 75.0799 64.9154 74.5606L73.6297 47.1755L67.4504 45.8801L59.4611 72.7292C58.6161 73.1889 57.9689 73.9429 57.6422 74.8484C57.3155 75.7539 57.3321 76.748 57.6888 77.642C58.0455 78.5361 58.7174 79.2682 59.5773 79.6993C60.4372 80.1305 61.4253 80.2309 62.3542 79.9814H62.3538Z" fill="#ED9DA0"/>
<path d="M73.8722 33.7119C75.6468 33.8931 76.6448 35.8904 76.2033 38.3769L74.0863 50.3097C73.9276 51.2041 73.1921 51.9123 72.5809 51.7597L65.42 49.9681C64.8689 49.8303 64.6661 49.0463 64.9781 48.2624L69.2772 37.4672C69.568 36.4463 70.1643 35.539 70.9858 34.8676C71.8074 34.1962 72.8147 33.7928 73.8722 33.7119Z" fill="#3F3D56"/>
<path d="M83.5916 66.3469C83.7916 66.3704 83.9894 66.4095 84.1832 66.4641L97.8724 54.7128L97.0749 50.398L103.418 48.3386L105.576 55.8344C105.751 56.4401 105.724 57.086 105.5 57.6752C105.277 58.2644 104.868 58.7651 104.336 59.1022L86.9975 70.0855C87.0098 70.8614 86.7859 71.6226 86.3555 72.268C85.925 72.9134 85.3085 73.4123 84.5879 73.6984C83.8673 73.9845 83.0768 74.0442 82.3214 73.8695C81.5661 73.6949 80.8818 73.2941 80.3596 72.7207C79.8373 72.1472 79.5018 71.4282 79.3978 70.6592C79.2937 69.8902 79.426 69.1078 79.777 68.4159C80.1281 67.724 80.6812 67.1555 81.3629 66.786C82.0446 66.4165 82.8225 66.2635 83.5931 66.3473L83.5916 66.3469Z" fill="#ED9DA0"/>
<path d="M97.9103 34.6974C99.8057 34.1664 101.7 35.6105 102.334 38.0705L105.379 49.8764C105.607 50.7615 105.164 51.702 104.472 51.8015L96.3608 52.9684C95.7368 53.0582 95.1865 52.4176 95.1639 51.5735L94.8487 39.9558C94.7281 38.8661 94.9608 37.7665 95.5124 36.8193C96.064 35.8722 96.9052 35.1277 97.9118 34.6958L97.9103 34.6974Z" fill="#3F3D56"/>
<path d="M240.977 123.677C240.4 123.306 239.911 122.812 239.545 122.231C239.179 121.65 238.945 120.996 238.859 120.314C238.773 119.633 238.838 118.941 239.048 118.287C239.258 117.633 239.609 117.033 240.075 116.53L236.549 66.425L246.709 67.4116L246.988 116.479C247.781 117.32 248.238 118.423 248.273 119.579C248.308 120.735 247.918 121.864 247.177 122.751C246.436 123.639 245.396 124.223 244.253 124.394C243.11 124.565 241.945 124.31 240.977 123.678L240.977 123.677Z" fill="#A0616A"/>
<path d="M238.848 83.2609C238.611 83.0897 238.414 82.8671 238.274 82.6096C238.133 82.3522 238.052 82.0665 238.036 81.7735L237.292 68.2693C237.218 66.9314 237.642 65.6134 238.481 64.5697C239.321 63.5259 240.517 62.8302 241.838 62.6168C243.16 62.4034 244.513 62.6874 245.638 63.4139C246.763 64.1405 247.579 65.2582 247.929 66.5515L251.2 78.6253C251.335 79.1291 251.266 79.6663 251.007 80.119C250.747 80.5717 250.319 80.9029 249.816 81.0399L240.514 83.5655C240.231 83.6428 239.935 83.6556 239.647 83.6031C239.359 83.5505 239.086 83.4338 238.848 83.2617V83.2609Z" fill="#3F3D56"/>
<path d="M84.6618 0.000732428C87.6844 0.000979688 90.5882 1.17872 92.7586 3.28462C94.9289 5.39052 96.1954 8.25928 96.2898 11.2835H98.4813C98.6742 11.2835 98.8592 11.3602 98.9956 11.4967C99.132 11.6333 99.2086 11.8185 99.2086 12.0116V14.924C99.2086 15.1171 99.132 15.3024 98.9956 15.4389C98.8592 15.5754 98.6742 15.6522 98.4813 15.6522H73.7514C73.5584 15.6522 73.3734 15.5754 73.237 15.4389C73.1006 15.3024 73.024 15.1171 73.024 14.924V11.6478C73.0246 8.55849 74.251 5.59597 76.4335 3.41179C78.6159 1.22761 81.5757 0.000628835 84.6618 0.000732428Z" fill="#81201A"/>
<path d="M221.279 174.857L215.382 174.575C214.879 174.552 214.405 174.336 214.057 173.973C213.709 173.61 213.513 173.127 213.51 172.623C211.955 148.603 209.802 122.847 213.098 112.897C213.096 112.613 213.156 112.333 213.272 112.074C213.388 111.816 213.559 111.586 213.773 111.399C213.986 111.213 214.237 111.075 214.509 110.995C214.781 110.915 215.067 110.894 215.347 110.935L238.938 114.363C239.404 114.429 239.831 114.66 240.14 115.015C240.45 115.37 240.621 115.825 240.622 116.296C243.634 128.078 243.77 149.442 243.656 171.639C243.658 171.899 243.609 172.156 243.511 172.397C243.413 172.637 243.268 172.856 243.086 173.041C242.903 173.225 242.685 173.371 242.446 173.471C242.206 173.571 241.949 173.622 241.69 173.622H235.333C234.864 173.624 234.41 173.458 234.053 173.152C233.697 172.847 233.462 172.424 233.391 171.96L229.283 140.71C229.226 140.345 229.038 140.013 228.756 139.775C228.473 139.538 228.113 139.41 227.744 139.417C227.375 139.424 227.02 139.565 226.747 139.813C226.473 140.061 226.298 140.399 226.254 140.767L223.325 173.125C223.267 173.603 223.036 174.042 222.677 174.362C222.317 174.681 221.854 174.858 221.373 174.86C221.341 174.86 221.31 174.859 221.279 174.857Z" fill="#2F2E41"/>
<path d="M225.431 116.3C221.987 114.275 218.171 112.966 214.211 112.452C213.95 112.427 213.698 112.349 213.468 112.224C213.239 112.098 213.038 111.927 212.876 111.72C212.712 111.513 212.591 111.274 212.521 111.018C212.451 110.763 212.433 110.496 212.47 110.233L218.122 68.2225C218.448 65.7647 219.396 63.4313 220.877 61.4441C222.358 59.4568 224.322 57.882 226.583 56.8694C228.771 55.8624 231.18 55.4327 233.582 55.6211C235.983 55.8095 238.296 56.6098 240.3 57.9458C240.494 58.0759 240.684 58.2076 240.871 58.3409C243.18 60.0342 244.936 62.3738 245.918 65.0649C246.901 67.7559 247.066 70.6779 246.392 73.4625C242.926 87.6573 241.735 110.929 241.531 115.45C241.516 115.835 241.386 116.208 241.159 116.519C240.932 116.831 240.618 117.069 240.256 117.202C238.124 117.978 235.873 118.379 233.604 118.387C230.746 118.405 227.931 117.686 225.431 116.3Z" fill="#3F3D56"/>
<path d="M230.159 51.167C236.086 51.167 240.89 46.3575 240.89 40.4246C240.89 34.4917 236.086 29.6821 230.159 29.6821C224.232 29.6821 219.427 34.4917 219.427 40.4246C219.427 46.3575 224.232 51.167 230.159 51.167Z" fill="#A0616A"/>
<path d="M237.752 48.9219C237.303 49.4061 236.726 49.7521 236.088 49.9192C235.449 50.0862 234.777 50.0675 234.148 49.8651C233.52 49.6627 232.963 49.285 232.542 48.7765C232.121 48.268 231.854 47.6498 231.771 46.9944C231.751 46.768 231.752 46.5401 231.776 46.3139C232.167 45.0716 232.402 43.7856 232.478 42.4852C232.437 42.1458 232.311 41.8224 232.111 41.5455C230.515 39.4068 226.77 42.502 225.265 40.566C224.342 39.3791 225.427 37.5099 224.719 36.1833C223.783 34.4323 221.014 35.2959 219.278 34.337C217.345 33.27 217.46 30.3022 218.732 28.4969C219.559 27.4302 220.612 26.5594 221.815 25.9466C223.017 25.3337 224.34 24.9938 225.689 24.9512C228.389 24.8875 231.072 25.4114 233.55 26.4867C236.478 27.4395 239.062 29.2324 240.981 31.6428C241.973 33.223 242.602 35.0044 242.822 36.8579C243.042 38.7114 242.847 40.5906 242.252 42.3595C241.201 44.824 239.672 47.0548 237.752 48.9219Z" fill="#2F2E41"/>
<path d="M246.25 59.366C246.062 58.4825 244.45 57.2753 242.143 56.2911C238.435 54.7877 234.425 54.1823 230.438 54.5243C226.452 54.8663 222.603 56.146 219.205 58.2592C218.967 58.2719 218.741 58.3623 218.56 58.5164C218.379 58.6706 218.254 58.8799 218.204 59.1122L210.443 93.468L209.436 97.9425L208.767 100.904L207.759 105.365L207.221 107.749C207.187 107.901 207.185 108.059 207.217 108.211C207.248 108.364 207.312 108.508 207.403 108.635C207.495 108.761 207.612 108.866 207.747 108.943C207.882 109.021 208.033 109.068 208.188 109.083L241.695 111.978C241.726 111.978 241.761 111.982 241.791 111.982C242.068 111.981 242.333 111.874 242.535 111.684C242.736 111.494 242.857 111.235 242.875 110.959L243.194 106.1L243.535 100.904L243.683 98.6511L244.02 93.468L246.253 59.4245V59.3941L246.25 59.366Z" fill="#81201A"/>
<path d="M191.27 61.5289C191.324 61.7649 191.359 62.0049 191.375 62.2464L210.144 73.0853L214.707 70.4563L219.569 76.8277L209.809 83.791L188.398 66.881C187.525 67.2044 186.574 67.254 185.672 67.0233C184.769 66.7925 183.959 66.2923 183.347 65.5891C182.736 64.886 182.353 64.0132 182.25 63.0869C182.146 62.1606 182.326 61.2246 182.767 60.4035C183.208 59.5823 183.888 58.9149 184.716 58.49C185.545 58.0651 186.484 57.9029 187.407 58.0248C188.33 58.1468 189.194 58.5472 189.884 59.1728C190.575 59.7983 191.058 60.6194 191.271 61.5269L191.27 61.5289Z" fill="#A0616A"/>
<path d="M210.814 72.1629C210.783 71.8712 210.817 71.5762 210.915 71.2996C211.013 71.0231 211.172 70.772 211.379 70.565L220.932 61C221.878 60.0522 223.142 59.4888 224.479 59.4184C225.816 59.348 227.131 59.7756 228.172 60.6188C229.212 61.4619 229.904 62.6609 230.114 63.9845C230.323 65.308 230.036 66.6624 229.307 67.7864L222.504 78.2817C222.22 78.7191 221.774 79.0257 221.264 79.1343C220.754 79.2429 220.222 79.1447 219.785 78.8611L211.699 73.609C211.453 73.4498 211.246 73.2374 211.093 72.9874C210.94 72.7374 210.844 72.4562 210.814 72.1645V72.1629Z" fill="#3F3D56"/>
<path d="M244.02 93.468L243.684 98.6518L209.432 97.9433L210.442 93.468H244.02Z" fill="#CCCCCC"/>
<path d="M243.536 100.904L243.195 106.099L207.756 105.365L208.766 100.904H243.536Z" fill="#CCCCCC"/>
<path d="M230.369 19.552C226.737 19.5524 223.248 20.9676 220.64 23.4981C218.033 26.0285 216.511 29.4756 216.398 33.1093H213.765C213.533 33.1094 213.311 33.2016 213.147 33.3657C212.984 33.5297 212.892 33.7522 212.892 33.9842V37.483C212.892 37.715 212.984 37.9375 213.147 38.1015C213.311 38.2656 213.533 38.3578 213.765 38.3579H243.476C243.591 38.358 243.705 38.3354 243.811 38.2915C243.917 38.2475 244.013 38.1831 244.094 38.1019C244.175 38.0207 244.24 37.9243 244.284 37.8182C244.328 37.712 244.35 37.5983 244.35 37.4834V33.5481C244.35 31.7101 243.989 29.8901 243.286 28.192C242.583 26.4939 241.553 24.951 240.255 23.6514C238.957 22.3517 237.415 21.3208 235.719 20.6174C234.023 19.914 232.205 19.552 230.369 19.552Z" fill="#81201A"/>
<path d="M309.059 161.941H306.062C306.043 161.578 302.02 152.126 302.02 152.126L299.588 146.238L297.98 142.312L295.549 136.423L292.765 129.651C292.694 129.345 292.521 129.073 292.276 128.878C292.03 128.682 291.726 128.576 291.412 128.576C291.098 128.576 290.794 128.682 290.548 128.878C290.303 129.073 290.13 129.345 290.059 129.651L287.274 136.423L284.842 142.312L283.234 146.238L280.802 152.126C280.802 152.126 276.779 161.577 276.76 161.941H273.763C273.374 161.936 272.988 162.009 272.627 162.155C272.266 162.301 271.938 162.517 271.661 162.791C271.385 163.065 271.165 163.391 271.015 163.75C270.865 164.11 270.788 164.495 270.788 164.885C270.788 165.274 270.865 165.66 271.015 166.019C271.165 166.379 271.385 166.705 271.661 166.979C271.938 167.253 272.266 167.469 272.627 167.615C272.988 167.761 273.374 167.834 273.763 167.829H309.059C309.448 167.834 309.834 167.761 310.195 167.615C310.555 167.469 310.884 167.253 311.16 166.979C311.437 166.705 311.657 166.379 311.807 166.019C311.957 165.66 312.034 165.274 312.034 164.885C312.034 164.495 311.957 164.11 311.807 163.75C311.657 163.391 311.437 163.065 311.16 162.791C310.884 162.517 310.555 162.301 310.195 162.155C309.834 162.009 309.448 161.936 309.059 161.941L309.059 161.941Z" fill="#FECB49"/>
<path d="M297.978 142.312H284.84L287.271 136.424H295.548L297.978 142.312Z" fill="#F2F2F2"/>
<path d="M302.017 152.127H280.801L283.232 146.238H299.586L302.017 152.127Z" fill="#F2F2F2"/>
<path d="M42.1604 183.111H40.999C41.1055 182.86 35.9445 169.646 35.9445 169.646L32.8463 162.089L30.7676 157.024L27.6694 149.467L24.2974 141.282C24.2024 140.896 23.9808 140.552 23.6679 140.307C23.3551 140.061 22.9691 139.928 22.5716 139.928C22.1741 139.928 21.7881 140.061 21.4753 140.307C21.1624 140.552 20.9408 140.896 20.8458 141.282L17.4731 149.467L14.3748 157.024L12.2762 162.089L9.17879 169.646C9.17879 169.646 4.03733 182.86 4.14341 183.111H2.94258C2.55348 183.106 2.16736 183.179 1.80659 183.325C1.44581 183.471 1.11755 183.687 0.840818 183.961C0.564086 184.235 0.344381 184.561 0.194436 184.921C0.0444902 185.28 -0.0327148 185.666 -0.0327148 186.055C-0.0327148 186.445 0.0444902 186.83 0.194436 187.19C0.344381 187.549 0.564086 187.875 0.840818 188.149C1.11755 188.423 1.44581 188.639 1.80659 188.785C2.16736 188.931 2.55348 189.004 2.94258 188.999H42.1604C42.5495 189.004 42.9357 188.931 43.2964 188.785C43.6572 188.639 43.9855 188.423 44.2622 188.149C44.5389 187.875 44.7586 187.549 44.9086 187.19C45.0585 186.83 45.1357 186.445 45.1357 186.055C45.1357 185.666 45.0585 185.28 44.9086 184.921C44.7586 184.561 44.5389 184.235 44.2622 183.961C43.9855 183.687 43.6572 183.471 43.2964 183.325C42.9357 183.179 42.5495 183.106 42.1604 183.111Z" fill="#FECB49"/>
<path d="M30.7645 157.025H14.3717L17.4699 149.468H27.6662L30.7645 157.025Z" fill="#F2F2F2"/>
<path d="M35.9395 169.646H9.17529L12.2735 162.089H32.8428L35.9395 169.646Z" fill="#F2F2F2"/>
</g>
<defs>
<clipPath id="clip0_34_58">
<rect width="312" height="189" fill="white"/>
</clipPath>
</defs>
</svg>
