<svg width="397" height="206" viewBox="0 0 397 206" fill="none" xmlns="http://www.w3.org/2000/svg">
<g clip-path="url(#clip0_34_151)">
<path d="M95.5398 202.502L85.7604 186.974L95.5444 204.194L95.5496 205.963C96.2473 205.955 96.9379 205.928 97.6215 205.883L96.8239 183.154L96.8344 182.978L96.8164 182.945L96.7405 180.797L106.966 163.778L96.7299 179.188L96.6993 179.643L96.0967 162.471L104.887 144.863L96.028 159.453L95.6159 123.859L95.614 123.74L95.6126 123.857L95.412 151.921L87.0122 140.692L95.4194 154.338L95.4584 169.708L87.6646 154.863L95.4627 171.968L95.4843 180.515L84.1631 159.845L95.4932 183.497L95.5398 202.502Z" fill="#666666"/>
<path d="M179.46 202.502L169.681 186.974L179.465 204.194L179.47 205.963C180.168 205.955 180.859 205.928 181.542 205.883L180.745 183.154L180.755 182.978L180.737 182.945L180.661 180.797L190.886 163.778L180.651 179.188L180.62 179.643L180.017 162.471L188.808 144.863L179.949 159.453L179.537 123.859L179.535 123.74L179.533 123.857L179.333 151.921L170.933 140.692L179.34 154.338L179.379 169.708L171.585 154.863L179.383 171.968L179.405 180.515L168.084 159.845L179.414 183.497L179.46 202.502Z" fill="#666666"/>
<path d="M11.5395 203.501L4.47783 192.288L11.5428 204.722L11.5466 206C12.0504 205.994 12.5491 205.975 13.0427 205.942L12.4667 189.529L12.4743 189.403L12.4613 189.378L12.4065 187.828L19.7901 175.538L12.3989 186.666L12.3767 186.995L11.9416 174.594L18.2892 161.88L11.892 172.415L11.5945 146.713L11.5931 146.627L11.5921 146.712L11.4472 166.976L5.38178 158.868L11.4526 168.722L11.4807 179.821L5.8529 169.101L11.4838 181.452L11.4994 187.624L3.32443 172.699L11.5058 189.777L11.5395 203.501Z" fill="#666666"/>
<path d="M383.563 202.502L373.784 186.974L383.568 204.194L383.573 205.963C384.271 205.955 384.961 205.928 385.645 205.883L384.847 183.154L384.858 182.978L384.84 182.945L384.764 180.797L394.989 163.778L384.753 179.188L384.723 179.643L384.12 162.471L392.911 144.863L384.051 159.453L383.639 123.859L383.637 123.74L383.636 123.857L383.435 151.921L375.036 140.692L383.443 154.338L383.482 169.708L375.688 154.863L383.486 171.968L383.508 180.515L372.187 159.845L383.517 183.497L383.563 202.502Z" fill="#666666"/>
<path d="M118.346 179.058H171.101V176.822H118.346V179.058Z" fill="#FECB49"/>
<path d="M115.664 176.822H168.418V174.585H115.664V176.822Z" fill="#FECB49"/>
<path d="M118.793 174.585H171.548V172.348H118.793V174.585Z" fill="#FECB49"/>
<path d="M124.158 172.348H176.913V170.112H124.158V172.348Z" fill="#FECB49"/>
<path d="M79.2717 173.24H81.1033V160.228H79.2717V173.24Z" fill="#81201A"/>
<path d="M79.2679 160.063L79.9567 161.761L147.737 134.235L147.048 132.537L79.2679 160.063Z" fill="#81201A"/>
<path d="M45.3863 192.666H61.3216V186.435H45.3863V192.666Z" fill="#81201A"/>
<path d="M46.8516 198.897H125.429V191.933H46.8516V198.897Z" fill="#81201A"/>
<path d="M59.7646 195.415H78.6306V171.682H64.5268L59.7646 183.652V195.415Z" fill="#666666"/>
<path d="M67.6408 181.212H75.7V173.148H67.6408V181.212Z" fill="white"/>
<path d="M61.5962 181.304H66.7251V173.24H64.5268L61.5962 181.304Z" fill="white"/>
<path d="M73.502 189.276H75.3337V185.794H73.502V189.276Z" fill="#81201A"/>
<path d="M65.168 181.854H65.0765C64.615 181.854 64.1724 181.67 63.8461 181.344C63.5197 181.017 63.3364 180.574 63.3364 180.112C63.3364 179.651 63.5197 179.208 63.8461 178.881C64.1724 178.555 64.615 178.372 65.0765 178.372H65.168V181.854Z" fill="#81201A"/>
<path d="M133.305 195.415H133.214C132.752 195.415 132.309 195.232 131.983 194.905C131.657 194.579 131.473 194.136 131.473 193.674C131.473 193.212 131.657 192.769 131.983 192.443C132.309 192.116 132.752 191.933 133.214 191.933H133.305V195.415Z" fill="#81201A"/>
<path d="M52.4381 191.906C51.076 191.924 49.7353 192.248 48.5158 192.856C47.2963 193.463 46.2293 194.338 45.3943 195.415H41.8146L45.2947 185.715L61.5048 182.517L61.0469 195.415H59.482C58.647 194.338 57.58 193.463 56.3605 192.856C55.141 192.248 53.8003 191.924 52.4381 191.906Z" fill="#666666"/>
<path d="M52.255 205.678C56.6554 205.678 60.2226 202.108 60.2226 197.706C60.2226 193.303 56.6554 189.734 52.255 189.734C47.8546 189.734 44.2873 193.303 44.2873 197.706C44.2873 202.108 47.8546 205.678 52.255 205.678Z" fill="#81201A"/>
<path d="M52.255 201.902C54.571 201.902 56.4485 200.023 56.4485 197.706C56.4485 195.389 54.571 193.51 52.255 193.51C49.939 193.51 48.0615 195.389 48.0615 197.706C48.0615 200.023 49.939 201.902 52.255 201.902Z" fill="#666666"/>
<path d="M124.238 205.586C128.083 205.586 131.199 202.468 131.199 198.622C131.199 194.776 128.083 191.658 124.238 191.658C120.394 191.658 117.278 194.776 117.278 198.622C117.278 202.468 120.394 205.586 124.238 205.586Z" fill="#81201A"/>
<path d="M124.238 202.287C126.262 202.287 127.902 200.646 127.902 198.622C127.902 196.598 126.262 194.957 124.238 194.957C122.215 194.957 120.575 196.598 120.575 198.622C120.575 200.646 122.215 202.287 124.238 202.287Z" fill="#666666"/>
<path d="M78.0811 196.148H81.9276V168.383H78.0811V196.148Z" fill="#81201A"/>
<path d="M78.0811 192.758H133.397V191.108H78.0811V192.758Z" fill="#81201A"/>
<path d="M64.0691 182.403H65.9007V181.67H64.0691V182.403Z" fill="#81201A"/>
<path d="M145.028 179.044C145.01 179.025 144.997 179.003 144.989 178.978C144.981 178.954 144.978 178.928 144.981 178.902L147.507 155.001C147.512 154.956 147.533 154.915 147.566 154.884C147.6 154.854 147.643 154.837 147.689 154.837H147.689C147.734 154.837 147.778 154.853 147.811 154.883C147.845 154.913 147.866 154.955 147.871 154.999L150.603 178.851C150.606 178.876 150.604 178.902 150.596 178.927C150.588 178.951 150.576 178.974 150.559 178.993C150.542 179.012 150.521 179.028 150.497 179.038C150.474 179.049 150.449 179.055 150.423 179.055L145.165 179.104H145.163C145.138 179.104 145.112 179.099 145.089 179.089C145.066 179.078 145.045 179.063 145.028 179.044ZM147.697 156.694L145.367 178.736L150.216 178.69L147.697 156.694Z" fill="#81201A"/>
<path d="M45.3284 185.857L45.4141 185.889C45.8457 186.053 46.1949 186.381 46.3846 186.802C46.5744 187.223 46.5893 187.702 46.4261 188.134C46.2628 188.566 45.9348 188.915 45.5141 189.105C45.0934 189.295 44.6146 189.31 44.183 189.146L44.0973 189.114L45.3284 185.857Z" fill="#81201A"/>
<path d="M146.859 159.312H148.691V132.556H146.859V159.312Z" fill="#81201A"/>
<path d="M80.1875 163.16C81.6037 163.16 82.7518 162.012 82.7518 160.595C82.7518 159.178 81.6037 158.029 80.1875 158.029C78.7713 158.029 77.6232 159.178 77.6232 160.595C77.6232 162.012 78.7713 163.16 80.1875 163.16Z" fill="#81201A"/>
<path d="M83.9217 191.136H136.676V188.899H83.9217V191.136Z" fill="#FECB49"/>
<path d="M87.0512 188.899H139.806V186.662H87.0512V188.899Z" fill="#FECB49"/>
<path d="M84.8158 187.11H137.57V184.873H84.8158V187.11Z" fill="#FECB49"/>
<path d="M87.9453 184.873H140.7V182.637H87.9453V184.873Z" fill="#FECB49"/>
<path d="M170.932 54.6807C172.614 54.6788 174.239 55.2846 175.509 56.3868C176.512 56.1126 177.564 56.0663 178.588 56.2514C179.435 55.021 180.654 54.0939 182.065 53.6057C183.477 53.1174 185.007 53.0936 186.433 53.5376C187.859 53.9817 189.106 54.8704 189.991 56.0738C190.877 57.2773 191.354 58.7324 191.354 60.2267H164.084C164.418 58.6575 165.281 57.2506 166.527 56.2412C167.774 55.2318 169.329 54.6809 170.932 54.6807Z" fill="#666666"/>
<path d="M129.906 76.7548C131.496 76.753 133.032 77.3258 134.233 78.3678C135.182 78.1085 136.176 78.0648 137.144 78.2398C137.945 77.0765 139.097 76.2001 140.432 75.7385C141.766 75.2769 143.213 75.2544 144.561 75.6742C145.909 76.094 147.088 76.9341 147.925 78.0719C148.762 79.2096 149.213 80.5853 149.213 81.998H123.432C123.748 80.5145 124.563 79.1844 125.742 78.2301C126.92 77.2758 128.39 76.755 129.906 76.7548Z" fill="#666666"/>
<path d="M88.8887 40.347C90.5424 40.3451 92.1412 40.9411 93.3904 42.0252C94.3775 41.7555 95.4123 41.71 96.4192 41.8921C97.2527 40.6817 98.4513 39.7698 99.8397 39.2896C101.228 38.8093 102.734 38.7859 104.136 39.2226C105.539 39.6594 106.765 40.5336 107.636 41.7174C108.507 42.9011 108.977 44.3325 108.977 45.8024H82.1523C82.4812 44.2588 83.3296 42.8749 84.5557 41.882C85.7818 40.8891 87.3113 40.3472 88.8887 40.347Z" fill="#666666"/>
<path d="M266.007 109.675V165.547H287.723V108.899L282.682 109.079V97.6471H279.026L278.423 72.3274C279.899 71.3655 280.937 69.0807 280.937 66.413C280.939 65.6471 280.85 64.8838 280.672 64.1389C281.37 63.3829 281.798 62.4165 281.889 61.3911C281.979 60.3658 281.727 59.3393 281.173 58.4724C281.637 58.8781 282.177 59.1875 282.761 59.3827C283.345 59.578 283.963 59.6551 284.577 59.6096C285.192 59.5642 285.791 59.397 286.341 59.1179C286.89 58.8388 287.379 58.4533 287.778 57.9837C288.177 57.5142 288.479 56.9699 288.667 56.3826C288.854 55.7953 288.923 55.1766 288.87 54.5624C288.816 53.9482 288.641 53.3508 288.355 52.8048C288.069 52.2588 287.677 51.7751 287.202 51.3818C288 51.0872 288.702 50.5795 289.232 49.9138C289.762 49.2481 290.099 48.4498 290.207 47.6058C290.315 46.7618 290.19 45.9042 289.846 45.1263C289.501 44.3484 288.95 43.6798 288.252 43.1932C287.555 42.7067 286.737 42.4207 285.888 42.3664C285.039 42.3121 284.192 42.4916 283.438 42.8853C282.684 43.279 282.052 43.8719 281.611 44.5996C281.171 45.3273 280.937 46.162 280.937 47.0129C280.937 47.0811 280.939 47.1487 280.942 47.2161C280.303 47.0209 279.63 46.9654 278.968 47.0536C278.305 47.1418 277.67 47.3716 277.104 47.7273C276.539 48.0829 276.056 48.5563 275.689 49.1151C275.323 49.6739 275.081 50.305 274.979 50.9658C274.399 50.6203 273.75 50.4054 273.079 50.3358C272.407 50.2663 271.728 50.3439 271.09 50.5631C270.451 50.7824 269.868 51.1381 269.38 51.6056C268.892 52.0731 268.512 52.6412 268.266 53.2704C268.02 53.8996 267.914 54.5748 267.955 55.2492C267.996 55.9236 268.183 56.581 268.503 57.1758C268.823 57.7706 269.269 58.2885 269.81 58.6936C270.35 59.0987 270.972 59.3813 271.633 59.5217C271.632 59.5555 271.63 59.589 271.63 59.623C272.062 60.928 272.613 62.1908 273.274 63.3959C272.95 64.3687 272.788 65.3878 272.794 66.413C272.794 69.0807 273.832 71.3655 275.307 72.3274L274.705 97.6471H271.049V109.495L266.007 109.675ZM279.568 56.3247L279.58 56.3249C279.647 56.3249 279.714 56.3227 279.78 56.3199C279.822 56.4575 279.87 56.5922 279.924 56.7241C279.813 56.5843 279.694 56.4509 279.568 56.3247Z" fill="#666666"/>
<path d="M254.05 205.318H319.975V129.011H254.05V205.318Z" fill="#81201A"/>
<path d="M278.126 205.318H295.9V189.798H278.126V205.318Z" fill="#666666"/>
<path d="M232.08 28.6079C232.079 28.6643 232.076 28.7202 232.076 28.7768C232.075 29.8145 232.282 30.8419 232.686 31.7977C233.09 32.7535 233.682 33.6182 234.427 34.3403C234.543 34.5885 234.673 34.8305 234.815 35.065C234.276 36.6863 234.006 38.3849 234.015 40.0935C234.015 45.9864 237.053 50.7635 240.801 50.7635C244.549 50.7635 247.587 45.9864 247.587 40.0935C247.59 38.817 247.442 37.5447 247.145 36.3032C248.309 35.0432 249.022 33.4326 249.173 31.7237C249.324 30.0148 248.904 28.304 247.98 26.8592C248.753 27.5353 249.653 28.0509 250.627 28.3762C251.601 28.7016 252.63 28.83 253.654 28.7542C254.678 28.6784 255.677 28.3999 256.593 27.9347C257.508 27.4695 258.323 26.827 258.988 26.0444C259.654 25.2619 260.157 24.3549 260.469 23.376C260.782 22.3972 260.897 21.366 260.807 20.3424C260.718 19.3188 260.427 18.3231 259.95 17.4132C259.473 16.5032 258.82 15.697 258.029 15.0415C259.359 14.5505 260.529 13.7043 261.412 12.5948C262.295 11.4853 262.857 10.1549 263.037 8.74814C263.218 7.34141 263.009 5.91213 262.435 4.61557C261.86 3.31901 260.942 2.20473 259.779 1.3938C258.616 0.582864 257.253 0.106279 255.839 0.0158084C254.424 -0.0746618 253.012 0.224445 251.755 0.880638C250.498 1.53683 249.445 2.52502 248.711 3.73785C247.976 4.95068 247.587 6.34178 247.587 7.76004C247.587 7.87366 247.591 7.98637 247.596 8.09878C246.531 7.77331 245.408 7.68092 244.305 7.8279C243.201 7.97488 242.142 8.35778 241.199 8.9506C240.256 9.54342 239.452 10.3323 238.841 11.2636C238.23 12.1949 237.826 13.2469 237.657 14.3482C236.69 13.7724 235.609 13.4141 234.49 13.2982C233.37 13.1823 232.239 13.3116 231.174 13.677C230.11 14.0425 229.138 14.6354 228.325 15.4145C227.512 16.1937 226.879 17.1404 226.469 18.1891C226.059 19.2377 225.882 20.3631 225.95 21.4871C226.018 22.6112 226.33 23.7069 226.864 24.6982C227.398 25.6895 228.141 26.5527 229.041 27.2279C229.942 27.903 230.979 28.3739 232.08 28.6079ZM245.325 23.2801C245.437 23.2801 245.548 23.2764 245.659 23.2717C245.728 23.501 245.808 23.7256 245.898 23.9453C245.713 23.7122 245.515 23.49 245.305 23.2796L245.325 23.2801Z" fill="#666666"/>
<path d="M236.922 103.79H244.679L244.402 92.1513V92.1468L243.387 49.4685C242.608 49.9446 241.713 50.1965 240.8 50.1965C239.888 50.1965 238.993 49.9446 238.214 49.4685L237.199 92.1468V92.1513L236.922 103.79Z" fill="#FECB49"/>
<path d="M222.705 112.196V205.318H258.896V110.903L250.495 111.203V92.1514H231.105V111.896L222.705 112.196Z" fill="#FECB49"/>
<path d="M324.503 28.6079C324.502 28.6643 324.499 28.7202 324.499 28.7768C324.498 29.8145 324.706 30.8419 325.11 31.7977C325.514 32.7535 326.106 33.6182 326.851 34.3403C326.967 34.5885 327.096 34.8305 327.238 35.065C326.699 36.6863 326.429 38.3849 326.438 40.0935C326.438 45.9864 329.476 50.7635 333.224 50.7635C336.972 50.7635 340.011 45.9864 340.011 40.0935C340.014 38.817 339.865 37.5447 339.568 36.3032C340.732 35.0432 341.445 33.4326 341.596 31.7237C341.747 30.0148 341.328 28.304 340.403 26.8592C341.176 27.5353 342.076 28.051 343.05 28.3763C344.024 28.7016 345.053 28.8301 346.078 28.7543C347.102 28.6785 348.101 28.3999 349.016 27.9348C349.932 27.4696 350.746 26.8271 351.412 26.0445C352.077 25.2619 352.581 24.3549 352.893 23.3761C353.205 22.3972 353.32 21.3661 353.231 20.3424C353.142 19.3188 352.85 18.3231 352.373 17.4132C351.896 16.5032 351.243 15.697 350.453 15.0415C351.782 14.5505 352.952 13.7043 353.835 12.5948C354.718 11.4853 355.28 10.1549 355.461 8.74814C355.641 7.34142 355.433 5.91214 354.858 4.61557C354.284 3.31901 353.365 2.20473 352.202 1.3938C351.039 0.582864 349.677 0.106279 348.262 0.0158085C346.847 -0.0746619 345.435 0.224445 344.179 0.880638C342.922 1.53683 341.869 2.52502 341.134 3.73785C340.399 4.95068 340.011 6.34178 340.011 7.76004C340.011 7.87366 340.015 7.98637 340.019 8.09878C338.954 7.77331 337.832 7.68092 336.728 7.8279C335.624 7.97488 334.565 8.35778 333.622 8.9506C332.68 9.54342 331.875 10.3323 331.264 11.2636C330.653 12.1949 330.25 13.2469 330.081 14.3482C329.114 13.7724 328.033 13.4141 326.913 13.2982C325.794 13.1823 324.662 13.3116 323.598 13.677C322.533 14.0425 321.561 14.6354 320.749 15.4145C319.936 16.1937 319.303 17.1404 318.892 18.1891C318.482 19.2377 318.305 20.3631 318.373 21.4871C318.441 22.6112 318.753 23.7069 319.287 24.6982C319.821 25.6895 320.564 26.5527 321.465 27.2279C322.366 27.903 323.402 28.3739 324.503 28.6079ZM337.749 23.2801C337.861 23.2801 337.972 23.2763 338.082 23.2716C338.152 23.501 338.232 23.7256 338.322 23.9453C338.137 23.7122 337.939 23.49 337.729 23.2796L337.749 23.2801Z" fill="#666666"/>
<path d="M329.346 103.79H337.102L335.81 49.4702C334.138 50.071 332.31 50.071 330.639 49.4702L329.346 103.79Z" fill="#FECB49"/>
<path d="M315.128 112.196V205.318H351.323V110.903L348.35 111.01L342.918 111.203V92.1514H323.529V111.896L315.128 112.196Z" fill="#FECB49"/>
<path d="M296.848 147.167H305.79V138.22H296.848V147.167Z" fill="white"/>
<path d="M282.542 147.167H291.483V138.22H282.542V147.167Z" fill="white"/>
<path d="M268.236 147.167H277.177V138.22H268.236V147.167Z" fill="white"/>
<path d="M296.848 161.481H305.79V152.534H296.848V161.481Z" fill="white"/>
<path d="M282.542 161.481H291.483V152.534H282.542V161.481Z" fill="white"/>
<path d="M268.236 161.481H277.177V152.534H268.236V161.481Z" fill="white"/>
<path d="M296.848 175.795H305.79V166.848H296.848V175.795Z" fill="white"/>
<path d="M282.542 175.795H291.483V166.848H282.542V175.795Z" fill="white"/>
<path d="M268.236 175.795H277.177V166.848H268.236V175.795Z" fill="white"/>
<path d="M236.33 143.588H245.272V134.642H236.33V143.588Z" fill="white"/>
<path d="M236.33 157.902H245.272V148.956H236.33V157.902Z" fill="white"/>
<path d="M236.33 172.216H245.272V163.27H236.33V172.216Z" fill="white"/>
<path d="M236.33 186.53H245.272V177.584H236.33V186.53Z" fill="white"/>
<path d="M328.679 143.588H337.62V134.642H328.679V143.588Z" fill="white"/>
<path d="M328.679 157.902H337.62V148.956H328.679V157.902Z" fill="white"/>
<path d="M328.679 172.216H337.62V163.27H328.679V172.216Z" fill="white"/>
<path d="M328.679 186.53H337.62V177.584H328.679V186.53Z" fill="white"/>
<path d="M397 205.002H0V205.897H397V205.002Z" fill="#81201A"/>
</g>
<defs>
<clipPath id="clip0_34_151">
<rect width="397" height="206" fill="white"/>
</clipPath>
</defs>
</svg>
