<svg width="219" height="240" viewBox="0 0 219 240" fill="none" xmlns="http://www.w3.org/2000/svg">
<g clip-path="url(#clip0_34_23)">
<path d="M56.7576 100.663C81.9408 100.663 102.356 80.221 102.356 55.0045C102.356 29.788 81.9408 9.34595 56.7576 9.34595C31.5745 9.34595 11.1594 29.788 11.1594 55.0045C11.1594 80.221 31.5745 100.663 56.7576 100.663Z" fill="#FECB49"/>
<path d="M124.88 17.6433L37.0537 66.0848C26.9083 79.1098 219.685 79.915 218.094 66.1328L132.93 17.6912C131.699 17.0123 130.317 16.6523 128.911 16.6439C127.505 16.6356 126.12 16.9791 124.88 17.6433Z" fill="#801E19"/>
<path opacity="0.2" d="M124.88 17.6433L37.0537 66.0848C26.9083 79.1098 219.685 79.915 218.094 66.1328L132.93 17.6912C131.699 17.0123 130.317 16.6523 128.911 16.6439C127.505 16.6356 126.12 16.9791 124.88 17.6433Z" fill="black"/>
<path opacity="0.8" d="M217.731 240L195.39 239.523H42.1986L0 238.57C139.901 205.462 96.8854 208.313 217.731 240Z" fill="#F2F2F2"/>
<path d="M197.163 238.57L195.39 239.523H42.1986C146.917 217.879 84.1352 219.786 197.163 238.57Z" fill="#E6E6E6"/>
<path d="M123.144 13.5992H129.737L127.513 1.04953C127.375 0.274977 126.849 0 126.44 0C126.03 0 125.504 0.274977 125.366 1.04953L123.144 13.5992Z" fill="#3F3D56"/>
<path d="M129.787 55.0044H122.518V232.544H129.787V55.0044Z" fill="#3F3D56"/>
<path d="M126.173 82.7191C124.647 82.7232 123.136 82.4256 121.725 81.8432C120.314 81.2609 119.032 80.4052 117.952 79.3255L99.6052 61.0861L101.103 59.5742L119.45 77.8136C120.346 78.7045 121.41 79.4085 122.58 79.8848C123.749 80.3611 125.002 80.6003 126.265 80.5884C127.528 80.5764 128.776 80.3137 129.936 79.8155C131.097 79.3172 132.148 78.5932 133.027 77.6855L150.559 59.5883L152.086 61.0718L134.554 79.169C133.482 80.2826 132.198 81.1704 130.778 81.78C129.358 82.3896 127.83 82.7088 126.285 82.7188H126.172L126.173 82.7191Z" fill="#3F3D56"/>
<path d="M128.715 68.7948C119.688 68.7948 110.589 68.7648 101.757 68.7013C83.0463 68.5681 67.0711 68.3048 55.5595 67.9399C35.9379 67.318 35.7289 66.6112 35.6396 66.3095C35.6193 66.2397 35.6121 66.1044 35.7968 65.9827L123.382 8.30851C124.407 7.6286 125.612 7.27015 126.841 7.27897C128.071 7.28778 129.27 7.66345 130.286 8.35799L218.835 66.03C219.02 66.1557 219.01 66.2912 218.989 66.3599C218.878 66.7143 218.543 67.793 179.663 68.4269C164.87 68.6689 146.942 68.7948 128.715 68.7948Z" fill="#801E19"/>
<path d="M156.683 185.411L149.758 185.419C148.982 187.145 150.042 189.163 151.397 190.482C152.752 191.801 154.451 192.813 155.451 194.419C157.671 197.981 155.579 202.665 156.312 206.8C157.3 212.367 163.128 215.871 164.903 221.239C165.396 222.765 165.543 224.382 165.335 225.972C165.126 227.563 164.568 229.087 163.699 230.435C163.376 230.929 163.002 231.416 162.89 231.994C162.812 232.392 162.865 232.804 163.039 233.169C163.214 233.535 163.502 233.834 163.86 234.023C164.218 234.211 164.627 234.279 165.027 234.216C165.426 234.153 165.795 233.963 166.078 233.673C165.53 234.297 165.71 235.349 166.325 235.907C166.65 236.167 167.03 236.348 167.437 236.435C167.844 236.523 168.265 236.514 168.668 236.411C171.297 235.855 172.621 232.812 172.727 230.124C172.834 227.436 172.158 224.711 172.686 222.072C173.021 225.859 177.301 228.264 177.636 232.052C177.699 232.754 173.825 234.865 174.185 235.471C175.096 237 177.27 237.006 179.037 236.822C182.083 236.507 185.466 236.015 187.377 233.619C188.665 232.004 188.998 229.831 189.04 227.765C189.139 222.331 187.559 216.998 184.517 212.497C180.484 206.56 174.074 202.354 170.908 195.912C169.832 193.723 169.174 191.349 168.127 189.146C167.08 186.942 165.54 184.834 163.313 183.845C161.085 182.856 158.086 183.344 156.8 185.417" fill="#3F3D56"/>
<path d="M178.157 232.801C178.019 232.801 177.882 232.771 177.757 232.711C177.734 232.7 177.712 232.685 177.695 232.666C177.677 232.647 177.664 232.624 177.655 232.6C177.646 232.575 177.642 232.549 177.643 232.523C177.644 232.497 177.65 232.471 177.661 232.448C177.672 232.424 177.688 232.403 177.707 232.385C177.726 232.368 177.748 232.354 177.773 232.345C177.797 232.336 177.823 232.332 177.849 232.333C177.875 232.334 177.901 232.341 177.924 232.352C178.015 232.39 178.114 232.407 178.212 232.4C178.31 232.393 178.406 232.363 178.49 232.313C178.633 232.232 178.757 232.121 178.853 231.988C178.948 231.854 179.012 231.7 179.041 231.539C179.131 230.939 178.832 230.324 178.566 229.782C177.792 228.202 177.027 226.51 176.912 224.723C176.783 222.707 177.614 220.83 179.029 219.939C180.081 219.278 181.473 219.104 182.947 219.451C184.209 219.749 185.372 220.372 186.552 221.041C186.597 221.066 186.631 221.109 186.645 221.16C186.659 221.211 186.652 221.265 186.627 221.31C186.601 221.356 186.558 221.39 186.507 221.404C186.457 221.418 186.403 221.411 186.357 221.385C185.159 220.707 184.069 220.123 182.856 219.838C181.486 219.515 180.201 219.671 179.239 220.275C177.945 221.089 177.186 222.824 177.307 224.698C177.417 226.413 178.165 228.064 178.921 229.608C179.197 230.172 179.542 230.875 179.432 231.598C179.394 231.821 179.306 232.032 179.176 232.216C179.045 232.401 178.875 232.553 178.677 232.662C178.518 232.75 178.339 232.797 178.157 232.8V232.801Z" fill="#2F2E41"/>
<path d="M166.636 188.857C167.122 189.882 167.265 191.036 167.043 192.149C166.82 193.261 166.245 194.272 165.401 195.03C165.013 195.321 164.642 195.634 164.29 195.967C164.114 196.136 163.979 196.343 163.894 196.571C163.81 196.8 163.778 197.044 163.802 197.287C162.678 196.171 161.533 195.025 160.854 193.594C160.174 192.163 160.042 190.367 160.926 189.053C161.348 188.427 161.962 187.957 162.441 187.372C162.92 186.788 163.265 185.993 163.006 185.282" fill="#2F2E41"/>
<path d="M186.836 227.641C186.298 229.286 187.183 231.18 188.634 232.118C190.085 233.057 191.96 233.155 193.635 232.73C195.255 232.295 196.725 231.425 197.885 230.213C199.046 229.001 199.854 227.494 200.22 225.856C200.505 224.494 200.485 223.034 201.131 221.802C201.537 221.027 202.206 220.327 202.226 219.453C202.219 219.096 202.116 218.748 201.927 218.446C201.738 218.144 201.47 217.899 201.152 217.737C200.506 217.423 199.762 217.378 199.082 217.61C197.469 218.123 196.48 219.759 195.967 221.373C195.455 222.987 195.263 224.714 194.517 226.234C193.772 227.755 192.23 229.083 190.554 228.851C189.105 228.65 187.878 227.342 186.426 227.52" fill="#3F3D56"/>
<path d="M64.0857 189.162C60.943 189.645 58.6443 191.659 58.9513 193.66C59.2582 195.661 62.0541 196.895 65.1976 196.412C66.4558 196.237 67.6539 195.762 68.6915 195.028L91.4246 191.599L92.2814 183.735L67.835 189.435C66.625 189.046 65.3395 188.952 64.086 189.162H64.0857Z" fill="#FFB6B6"/>
<path d="M121.352 172.767L116.199 183.716L90.295 192.448L91.5572 183.549L115.462 172.236L121.352 172.767Z" fill="#F2F2F2"/>
<path d="M73.5744 214.34L68.9482 226.057L62.9612 221.97L66.4997 209.708L73.5744 214.34Z" fill="#FFB6B6"/>
<path d="M54.2526 209.98L42.0067 221.698L46.9051 226.875L59.4229 217.065L54.2526 209.98Z" fill="#FFB6B6"/>
<path d="M123.647 171.831L123.511 170.877L120.382 164.746L110.041 167.471L111.946 175.918L123.647 171.831Z" fill="#FFB6B6"/>
<path d="M119.293 212.705L119.611 216.798C119.611 216.798 120.926 233.96 110.312 235.322C99.6992 236.685 95.073 238.047 88.8138 227.42L79.0176 209.98L73.2947 216.798L65.6824 210.797C65.6824 210.797 71.125 189.542 75.4793 188.725C76.0153 188.626 76.5586 188.571 77.1036 188.561C78.8841 188.542 80.6435 188.947 82.2363 189.744C83.8291 190.541 85.2094 191.707 86.2629 193.144L98.6107 209.707L103.101 207.664L119.293 212.705V212.705Z" fill="#090814"/>
<path d="M60.5106 225.513L63.2603 221.45L69.5714 224.448C69.5714 224.448 71.6677 231.779 69.2189 232.596C66.7701 233.413 59.9653 232.323 59.9653 232.323C59.9653 232.323 47.4474 235.048 47.1749 232.596C46.9024 230.144 52.8897 229.597 52.8897 229.597L60.5106 225.513Z" fill="#FFB6B6"/>
<path d="M87.1811 222.242L68.2672 210.31L58.6063 218.972L52.0757 211.343C52.0757 211.343 64.0497 193.63 67.5883 192.813C71.1268 191.996 76.8419 191.45 76.8419 191.45L94.2585 207.528L87.1829 222.242H87.1811Z" fill="#090814"/>
<path d="M43.3243 220.651L47.3237 226.364L47.1671 228.127C47.1671 228.127 45.5434 235.208 41.7335 232.813C37.9237 230.417 37.6515 229.872 37.6515 229.872C37.6515 229.872 26.766 232.325 25.6774 227.965C24.5889 223.605 27.5824 224.422 27.5824 224.422L30.3004 226.057L40.8956 222.511L43.324 220.652L43.3243 220.651Z" fill="#FFB6B6"/>
<path d="M113.306 170.468C118.115 170.468 122.014 166.564 122.014 161.749C122.014 156.933 118.115 153.029 113.306 153.029C108.497 153.029 104.598 156.933 104.598 161.749C104.598 166.564 108.497 170.468 113.306 170.468Z" fill="#FFB6B6"/>
<path d="M111.265 174.147L123.783 170.332C123.783 170.332 128.681 181.777 127.865 186.954C127.048 192.132 119.61 216.798 119.61 216.798L103.1 207.664C103.1 207.664 102.828 202.214 102.012 199.762C101.195 197.309 98.6101 189.816 104.325 183.548C110.04 177.281 111.264 174.147 111.264 174.147H111.265Z" fill="#F2F2F2"/>
<path d="M83.7135 231.366C81.6771 233.81 81.2842 236.844 82.8379 238.143C84.3915 239.442 87.3018 238.512 89.3394 236.067C90.1667 235.101 90.7511 233.951 91.0437 232.713L110.33 211.061L104.353 207.826L86.7055 229.088C85.5411 229.598 84.5154 230.379 83.7144 231.367L83.7135 231.366Z" fill="#FFB6B6"/>
<path d="M120.867 179.645L123.826 191.38L110.651 214.295L102.736 208.471L104.678 206.914L115.979 182.98L120.867 179.645Z" fill="#F2F2F2"/>
<path d="M105.277 160.25C107.511 160.245 107.638 160.26 107.999 160.25C110.769 160.177 111.493 159.086 112.897 159.16C115.403 159.293 112.096 171.874 110.72 177.69C109.372 183.394 113.93 188.505 114.258 188.862C118.885 193.902 127.015 194.823 128.409 192.677C129.538 190.94 125.536 188.299 126.504 184.502C127.449 180.791 131.814 181.186 133.035 177.69C134.313 174.028 130.018 172.181 127.32 163.247C125.771 158.116 126.045 157.16 124.599 153.982C120.734 145.487 101.79 149.104 103.916 156.98C104.328 158.504 103.233 160.255 105.277 160.249L105.277 160.25Z" fill="#090814"/>
</g>
<defs>
<clipPath id="clip0_34_23">
<rect width="219" height="240" fill="white"/>
</clipPath>
</defs>
</svg>
