<svg width="191" height="199" viewBox="0 0 191 199" fill="none" xmlns="http://www.w3.org/2000/svg">
<g clip-path="url(#clip0_34_108)">
<path d="M170.871 19.5412C169.599 18.6415 168.206 17.7033 166.649 17.7408C162.881 17.8316 160.849 23.3654 157.084 23.1708C154.683 23.0467 153.089 20.6037 150.854 19.7179C147.943 18.5647 144.239 20.8201 143.922 23.9389L144.296 23.5962C155.609 26.3588 167.349 26.902 178.869 25.196C176.203 23.3111 173.537 21.4262 170.871 19.5412Z" fill="#666666"/>
<path d="M2.99165 161.807C4.49307 149.714 11.9754 137.799 23.4895 133.863C18.9486 146.31 18.9496 159.965 23.4923 172.411C25.2615 177.205 27.7277 182.352 26.0635 187.183C25.028 190.19 22.4949 192.49 19.6633 193.928C16.8316 195.366 13.689 196.051 10.5857 196.723L9.97499 197.229C5.04858 186.087 1.49023 173.9 2.99165 161.807Z" fill="#666666"/>
<path d="M23.6037 134.092C16.8984 141.617 12.7309 151.068 11.693 161.101C11.4838 163.251 11.4583 165.451 11.9277 167.571C12.4011 169.634 13.4173 171.533 14.8709 173.069C16.1974 174.529 17.7231 175.868 18.6722 177.626C19.6727 179.478 19.7111 181.583 19.0262 183.551C18.1882 185.958 16.5366 187.92 14.8548 189.783C12.9876 191.851 11.0153 193.97 10.2216 196.712C10.1254 197.044 9.61641 196.875 9.71244 196.543C11.0934 191.773 15.7166 189.063 17.9215 184.767C18.9503 182.762 19.3821 180.434 18.4176 178.318C17.5742 176.467 16.0021 175.084 14.6462 173.618C13.2225 172.078 12.1308 170.389 11.5685 168.35C10.9932 166.264 10.9328 164.059 11.0863 161.912C11.4705 157.047 12.6161 152.272 14.4811 147.763C16.5811 142.605 19.5464 137.845 23.2489 133.689C23.4782 133.432 23.8315 133.837 23.6037 134.092Z" fill="white"/>
<path d="M11.8374 157.85C10.1805 157.447 8.72054 156.468 7.71824 155.086C6.71594 153.704 6.23658 152.011 6.36576 150.308C6.39308 149.964 6.9288 149.99 6.90144 150.335C6.77822 151.92 7.2249 153.498 8.16086 154.782C9.09683 156.067 10.4604 156.974 12.0055 157.34C12.3412 157.42 12.1712 157.93 11.8374 157.85Z" fill="white"/>
<path d="M14.101 172.417C17.0936 170.628 19.3027 167.774 20.2879 164.425C20.3853 164.093 20.8943 164.262 20.7971 164.593C19.7654 168.076 17.4604 171.042 14.3421 172.897C14.0448 173.074 13.8053 172.593 14.101 172.417Z" fill="white"/>
<path d="M17.0785 143.114C17.6872 143.404 18.3582 143.537 19.0312 143.503C19.7042 143.469 20.3582 143.268 20.9345 142.918C21.2294 142.738 21.4687 143.218 21.1756 143.398C20.5372 143.781 19.8146 144.003 19.0711 144.042C18.3276 144.081 17.5858 143.938 16.9104 143.624C16.8443 143.6 16.7899 143.551 16.7582 143.488C16.7265 143.425 16.72 143.353 16.7399 143.285C16.7625 143.217 16.8108 143.162 16.8742 143.13C16.9376 143.098 17.011 143.092 17.0785 143.114Z" fill="white"/>
<path d="M58.5862 155.463C58.4052 155.581 58.2242 155.699 58.043 155.821C55.6181 157.418 53.3268 159.21 51.1916 161.179C51.0241 161.328 50.8566 161.483 50.6938 161.637C45.6001 166.435 41.4401 172.139 38.4252 178.458C37.2279 180.974 36.2233 183.577 35.4203 186.246C34.3114 189.931 33.4019 194.015 31.207 197.03C30.9815 197.347 30.7367 197.649 30.4738 197.936H10.6386C10.5935 197.913 10.5482 197.895 10.5029 197.873L9.71094 197.909C9.74276 197.768 9.77877 197.623 9.81059 197.483C9.82871 197.401 9.85126 197.32 9.86937 197.238C9.88285 197.184 9.89655 197.129 9.90561 197.079C9.91003 197.061 9.91468 197.043 9.91909 197.03C9.92815 196.98 9.94185 196.934 9.95091 196.889C10.15 196.078 10.3551 195.266 10.5663 194.455C10.5663 194.45 10.5663 194.45 10.5707 194.446C12.1955 188.267 14.3496 182.171 17.359 176.595C17.4496 176.427 17.5399 176.255 17.6396 176.088C19.01 173.582 20.5826 171.193 22.3416 168.944C23.3088 167.715 24.3374 166.537 25.4235 165.413C28.2355 162.513 31.4852 160.075 35.0536 158.187C42.1678 154.425 50.404 152.983 58.007 155.282C58.2014 155.34 58.3917 155.399 58.5862 155.463Z" fill="#666666"/>
<path d="M58.5416 155.715C48.6644 157.68 39.6564 162.712 32.7971 170.097C31.3372 171.688 29.9945 173.429 29.095 175.405C28.233 177.338 27.9034 179.466 28.1404 181.57C28.3221 183.535 28.7352 185.525 28.4367 187.5C28.122 189.583 26.8876 191.286 25.158 192.444C23.0418 193.861 20.5436 194.432 18.0812 194.905C15.3471 195.43 12.4989 195.933 10.2171 197.643C9.94058 197.85 9.63567 197.409 9.91173 197.202C13.8818 194.225 19.2019 194.85 23.545 192.749C25.5716 191.769 27.3155 190.171 27.8175 187.899C28.2565 185.913 27.8323 183.861 27.6312 181.872C27.42 179.784 27.5639 177.777 28.3403 175.81C29.1346 173.798 30.4122 172 31.825 170.379C35.0563 166.726 38.8409 163.605 43.0402 161.129C47.8172 158.277 53.046 156.265 58.5004 155.179C58.838 155.112 58.877 155.648 58.5416 155.715Z" fill="white"/>
<path d="M34.8661 167.589C33.7853 166.268 33.2085 164.605 33.2387 162.898C33.2689 161.19 33.904 159.549 35.0308 158.267C35.2597 158.008 35.6716 158.352 35.4424 158.611C34.391 159.803 33.7994 161.332 33.7746 162.922C33.7497 164.512 34.2932 166.059 35.3068 167.283C35.5268 167.549 35.0848 167.853 34.8661 167.589Z" fill="white"/>
<path d="M27.9173 180.585C31.3825 180.961 34.8618 180.014 37.6613 177.935C37.9385 177.728 38.2435 178.17 37.9666 178.376C35.0493 180.535 31.4266 181.512 27.8215 181.113C27.4779 181.075 27.5756 180.547 27.9173 180.585Z" fill="white"/>
<path d="M47.9085 158.984C48.2204 159.582 48.6757 160.093 49.2336 160.472C49.7916 160.85 50.4346 161.084 51.1051 161.152C51.449 161.186 51.351 161.714 51.0093 161.681C50.2689 161.602 49.559 161.343 48.9417 160.926C48.3243 160.509 47.8182 159.947 47.4677 159.289C47.4295 159.23 47.4152 159.158 47.4278 159.089C47.4404 159.02 47.4789 158.958 47.5355 158.916C47.594 158.875 47.6661 158.86 47.7359 158.873C47.8058 158.885 47.8678 158.925 47.9085 158.984Z" fill="white"/>
<path d="M60.5214 152.954C62.3907 137.898 71.7064 123.063 86.0419 118.163C80.3884 133.66 80.3896 150.661 86.0454 166.157C88.2482 172.125 91.3187 178.534 89.2466 184.549C87.9574 188.292 84.8036 191.155 81.2782 192.946C77.7526 194.736 73.84 195.59 69.9763 196.426L69.2159 197.056C63.0823 183.183 58.6521 168.01 60.5214 152.954Z" fill="#666666"/>
<path d="M86.1842 118.448C77.9209 127.716 72.5602 139.689 71.355 152.075C71.0944 154.752 71.0628 157.492 71.6472 160.131C72.2366 162.699 73.5018 165.063 75.3115 166.976C76.9631 168.793 78.8626 170.461 80.0443 172.649C81.2899 174.955 81.3378 177.576 80.4851 180.026C79.4417 183.023 77.3854 185.466 75.2915 187.785C72.9667 190.36 70.5112 192.998 69.523 196.412C69.4033 196.825 68.7695 196.615 68.8891 196.202C70.6084 190.263 76.3645 186.889 79.1096 181.539C80.3905 179.043 80.9282 176.145 79.7273 173.51C78.6773 171.206 76.7199 169.485 75.0318 167.659C73.2592 165.742 71.9001 163.638 71.1999 161.1C70.4837 158.504 70.4085 155.757 70.5996 153.085C71.078 147.027 72.5043 141.083 74.8262 135.469C77.4408 129.047 81.1327 123.121 85.7424 117.946C86.0279 117.626 86.4678 118.13 86.1842 118.448Z" fill="white"/>
<path d="M71.5347 148.028C69.4718 147.526 67.6541 146.306 66.4062 144.586C65.1583 142.866 64.5615 140.758 64.7223 138.637C64.7563 138.209 65.4233 138.241 65.3893 138.671C65.2359 140.645 65.792 142.609 66.9573 144.208C68.1226 145.808 69.8203 146.937 71.744 147.393C72.162 147.492 71.9503 148.127 71.5347 148.028Z" fill="white"/>
<path d="M74.3529 166.165C78.0788 163.936 80.8292 160.383 82.0559 156.214C82.1771 155.801 82.8109 156.011 82.6898 156.423C81.4053 160.76 78.5355 164.452 74.6532 166.762C74.283 166.982 73.9847 166.383 74.3529 166.165Z" fill="white"/>
<path d="M78.0601 129.681C78.8179 130.042 79.6533 130.208 80.4912 130.165C81.3292 130.123 82.1434 129.872 82.8609 129.437C83.2281 129.212 83.5259 129.811 83.1611 130.034C82.3662 130.512 81.4666 130.787 80.5409 130.836C79.6153 130.885 78.6916 130.707 77.8508 130.316C77.7685 130.286 77.7007 130.225 77.6613 130.147C77.6218 130.068 77.6137 129.978 77.6385 129.894C77.6666 129.81 77.7267 129.74 77.8056 129.7C77.8846 129.661 77.976 129.654 78.0601 129.681Z" fill="white"/>
<path d="M129.739 145.055C129.513 145.202 129.288 145.349 129.062 145.501C126.043 147.49 123.19 149.721 120.532 152.172C120.323 152.358 120.115 152.55 119.912 152.742C113.57 158.716 108.391 165.817 104.637 173.685C103.147 176.818 101.896 180.059 100.896 183.381C99.5156 187.969 98.3832 193.054 95.6505 196.807C95.3698 197.202 95.0649 197.579 94.7376 197.936H70.0421C69.986 197.908 69.9296 197.885 69.8732 197.857L68.8871 197.902C68.9268 197.727 68.9716 197.547 69.0112 197.372C69.0338 197.27 69.0619 197.168 69.0844 197.067C69.1012 196.999 69.1183 196.931 69.1295 196.869C69.135 196.847 69.1408 196.824 69.1463 196.807C69.1576 196.745 69.1746 196.689 69.1859 196.632C69.4338 195.622 69.6892 194.612 69.9521 193.602C69.9521 193.596 69.9521 193.596 69.9576 193.59C71.9806 185.898 74.6624 178.307 78.4092 171.366C78.522 171.157 78.6345 170.943 78.7586 170.734C80.4648 167.614 82.4228 164.639 84.6128 161.839C85.8169 160.31 87.0976 158.843 88.4499 157.443C91.9508 153.833 95.9969 150.797 100.44 148.447C109.297 143.763 119.551 141.968 129.017 144.829C129.26 144.903 129.496 144.976 129.739 145.055Z" fill="#666666"/>
<path d="M129.683 145.369C117.514 147.786 106.038 154.113 97.6303 163.276C95.8127 165.256 94.141 167.424 93.0211 169.884C91.9479 172.29 91.5375 174.94 91.8326 177.559C92.0588 180.006 92.5731 182.483 92.2014 184.943C91.8097 187.536 90.2728 189.657 88.1194 191.099C85.4847 192.863 82.3743 193.573 79.3084 194.162C75.9044 194.816 72.3583 195.442 69.5173 197.571C69.1731 197.829 68.7935 197.279 69.1372 197.022C74.08 193.316 80.7038 194.094 86.1111 191.478C88.6343 190.257 90.8055 188.268 91.4305 185.44C91.9771 182.967 91.4489 180.412 91.1985 177.936C90.9356 175.336 91.1148 172.837 92.0815 170.388C93.0703 167.883 94.6609 165.645 96.42 163.626C100.443 159.078 105.155 155.192 110.383 152.11C116.331 148.56 122.841 146.054 129.632 144.703C130.052 144.619 130.101 145.286 129.683 145.369Z" fill="white"/>
<path d="M100.206 160.153C98.8606 158.508 98.1425 156.438 98.1801 154.312C98.2176 152.186 99.0084 150.143 100.411 148.547C100.696 148.225 101.209 148.653 100.924 148.976C99.6147 150.459 98.8782 152.363 98.8473 154.343C98.8163 156.322 99.4929 158.248 100.755 159.772C101.029 160.103 100.478 160.482 100.206 160.153Z" fill="white"/>
<path d="M91.5548 176.333C95.8691 176.801 100.201 175.623 103.686 173.033C104.032 172.777 104.411 173.327 104.067 173.583C100.434 176.271 95.924 177.488 91.4355 176.991C91.0077 176.944 91.1293 176.286 91.5548 176.333Z" fill="white"/>
<path d="M116.445 149.439C116.833 150.184 117.4 150.82 118.094 151.292C118.789 151.763 119.59 152.054 120.424 152.139C120.853 152.181 120.73 152.839 120.305 152.797C119.383 152.699 118.499 152.376 117.731 151.857C116.962 151.338 116.332 150.639 115.896 149.819C115.848 149.746 115.83 149.657 115.846 149.57C115.862 149.484 115.91 149.407 115.98 149.354C116.053 149.304 116.143 149.285 116.23 149.301C116.317 149.317 116.394 149.366 116.445 149.439Z" fill="white"/>
<path d="M38.1151 118.887C38.5513 118.752 38.9526 118.523 39.291 118.216C39.6293 117.91 39.8963 117.532 40.0733 117.111C40.2502 116.689 40.3328 116.234 40.3151 115.777C40.2975 115.321 40.1801 114.873 39.9711 114.467L49.6121 87.673L42.9278 86.4827L35.5529 113.194C34.8945 113.591 34.4043 114.216 34.1752 114.951C33.9461 115.686 33.994 116.479 34.3098 117.18C34.6256 117.882 35.1875 118.443 35.8888 118.758C36.5901 119.072 37.3823 119.118 38.1151 118.887Z" fill="#9E616A"/>
<path d="M51.6863 81.535C51.4586 81.0373 51.1284 80.5933 50.7176 80.2322C50.3067 79.8711 49.8244 79.6009 49.3021 79.4393C48.7798 79.2777 48.2293 79.2284 47.6867 79.2946C47.1441 79.3608 46.6215 79.541 46.1532 79.8235C45.4134 80.2614 44.8438 80.9376 44.5374 81.7417L41.0706 87.8894C40.9715 88.065 40.9114 88.2599 40.8944 88.4609C40.8773 88.6619 40.9038 88.8642 40.9719 89.054C41.04 89.2438 41.1482 89.4166 41.2891 89.5608C41.43 89.7049 41.6003 89.8169 41.7883 89.8891L41.9685 89.9589L43.3083 90.4742L47.9608 92.2643L48.3879 92.4302C48.5758 92.5025 48.777 92.5333 48.9779 92.5206C49.1787 92.5079 49.3745 92.452 49.5518 92.3567C49.7292 92.2614 49.8839 92.1289 50.0055 91.9683C50.1271 91.8077 50.2128 91.6227 50.2566 91.426L50.8059 88.9547L51.7853 84.5594C51.9723 84.0744 52.0599 83.5567 52.043 83.0371C52.026 82.5175 51.9047 82.0067 51.6863 81.535Z" fill="#801E19"/>
<path d="M62.5151 96.8352H46.5693V112.807H62.5151V96.8352Z" fill="#9E616A"/>
<path d="M37.7872 192.294L40.9289 192.294L42.4235 180.156L37.7866 180.157L37.7872 192.294Z" fill="#9E616A"/>
<path d="M46.4118 195.84L41.6895 192.574V190.444L41.1548 190.476H41.1518L37.7896 190.679H37.7867L36.7231 190.74L36.1158 198.026L36.0983 198.268H38.3273L38.3708 198.026L38.7253 196.16L39.6292 198.026L39.7454 198.268H45.6563C45.9292 198.27 46.1957 198.185 46.4177 198.026C46.5931 197.905 46.7364 197.743 46.8351 197.554C46.9339 197.364 46.9851 197.154 46.9844 196.941C46.9847 196.725 46.9327 196.512 46.833 196.32C46.7333 196.128 46.5888 195.964 46.4118 195.84Z" fill="#2F2E41"/>
<path d="M56.1611 190.296L59.1805 191.166L63.9665 179.915L59.5103 178.631L56.1611 190.296Z" fill="#9E616A"/>
<path d="M63.4705 196.096L59.8321 191.649L60.4219 189.599L59.8989 189.483H59.8959L56.9812 188.828L56.6063 188.744L55.5689 188.511L52.8895 195.569L55.0283 196.189L55.996 194.271L56.3912 196.58L57.7397 196.967L61.41 198.026L62.0755 198.218C62.2664 198.272 62.4668 198.283 62.6623 198.25C62.8578 198.216 63.0435 198.14 63.206 198.026C63.4549 197.853 63.6366 197.599 63.7203 197.307C63.7794 197.1 63.7875 196.882 63.744 196.671C63.7005 196.46 63.6066 196.263 63.4705 196.096Z" fill="#2F2E41"/>
<path d="M61.0875 66.7628C60.4997 67.8431 59.6838 68.782 58.6965 69.514C57.7093 70.246 56.5745 70.7534 55.3713 71.0009C55.2376 71.03 55.1039 71.0533 54.9673 71.0737C53.0793 71.3693 51.1471 71.0163 49.4849 70.0721C47.8227 69.128 46.5284 67.6482 45.8125 65.8735C45.0967 64.0989 45.0015 62.1339 45.5423 60.2981C46.0832 58.4624 47.2283 56.864 48.7914 55.763C50.3545 54.662 52.2435 54.1232 54.1512 54.2343C56.0588 54.3453 57.8728 55.0997 59.298 56.3746C60.7232 57.6496 61.6758 59.3701 62.0007 61.2563C62.3256 63.1424 62.0037 65.0831 61.0875 66.7628Z" fill="#9E616A"/>
<path d="M74.4948 160.99C74.7607 160.288 74.8588 159.533 74.7812 158.786C74.7035 158.039 74.4523 157.32 74.0476 156.687L66.8097 119.082L63.9622 104.821H46.8775C46.8775 104.821 36.1995 116.657 38.4775 131.774L37.8398 153.062C37.2351 154.522 37.0858 156.132 37.4117 157.678L37.6655 158.883L37.5676 159.064C37.1015 159.928 36.851 160.892 36.8377 161.874C36.8244 162.856 37.0486 163.827 37.4911 164.703L36.769 188.816L41.8944 188.531L49.4402 160.438L54.4232 135.196L62.8232 154.733L63.108 159.297L62.9698 163.319L56.4165 186.82L61.969 188.959L74.4948 160.99Z" fill="#2F2E41"/>
<path d="M61.2299 82.5074L57.2225 78.4701L57.42 77.4164C57.5182 76.881 57.4394 76.3282 57.1956 75.8417C56.9517 75.3553 56.5561 74.9618 56.0687 74.721L50.8524 72.1536C50.4972 71.979 50.1056 71.8915 49.71 71.8986C49.3144 71.9056 48.9262 72.0069 48.5774 72.1941C48.2287 72.3813 47.9294 72.649 47.7045 72.975C47.4795 73.301 47.3352 73.676 47.2837 74.0689L46.685 78.7001C46.6328 78.799 46.4351 79.192 46.1532 79.8236C45.1892 82.025 44.4408 84.3149 43.9185 86.6612C43.6375 87.9186 43.4338 89.192 43.3083 90.4743C42.9972 93.3344 43.2139 96.2273 43.9475 99.0089C44.2032 99.9229 44.3427 100.17 44.4242 100.263C44.3615 100.672 44.3208 101.084 44.3022 101.498L44.2933 101.646L44.5811 101.658L46.5688 101.739L60.7562 102.327L62.5144 102.4L62.959 102.417L63.9849 96.785L64.2813 95.1579C64.5051 94.7009 68.2451 86.7456 61.2299 82.5074Z" fill="#801E19"/>
<path d="M74.9839 115.194C75.151 114.768 75.2231 114.311 75.1948 113.855C75.1666 113.399 75.0389 112.954 74.8206 112.553C74.6023 112.151 74.2987 111.803 73.9314 111.531C73.564 111.26 73.1417 111.073 72.6943 110.983L57.8092 86.7161L52.7091 91.2047L68.9444 113.647C68.8431 114.409 69.0247 115.183 69.4548 115.821C69.8849 116.459 70.5337 116.916 71.2781 117.107C72.0226 117.298 72.811 117.208 73.494 116.856C74.177 116.503 74.7071 115.912 74.9839 115.194Z" fill="#9E616A"/>
<path d="M61.1398 88.556L56.7372 83.072C56.242 82.2271 55.4474 81.5999 54.5115 81.3151C53.5756 81.0303 52.567 81.1089 51.6863 81.5351C51.5939 81.5781 51.5038 81.6257 51.4162 81.6777C50.5294 82.1975 49.8843 83.0479 49.6218 84.0428C49.3593 85.0378 49.5008 86.0963 50.0153 86.9871L50.8058 88.9548L52.6482 93.5364C52.7233 93.7233 52.8377 93.8918 52.9836 94.0304C53.1295 94.169 53.3035 94.2746 53.4938 94.3397C53.6841 94.4049 53.8862 94.4283 54.0863 94.4082C54.2864 94.3881 54.4798 94.3251 54.6534 94.2234L54.822 94.1244L60.3609 90.8759L60.7561 90.6431C60.9298 90.5417 61.0794 90.4039 61.1948 90.2391C61.3102 90.0743 61.3886 89.8864 61.4246 89.6883C61.4604 89.4901 61.4535 89.2866 61.4044 89.0913C61.3553 88.896 61.2651 88.7135 61.1398 88.556Z" fill="#801E19"/>
<path d="M177.923 26.1974C185.145 26.1974 191 20.3329 191 13.0987C191 5.86449 185.145 0 177.923 0C170.7 0 164.845 5.86449 164.845 13.0987C164.845 20.3329 170.7 26.1974 177.923 26.1974Z" fill="#FECB49"/>
<path d="M39.6474 25.8727C38.0257 24.7262 36.2514 23.5305 34.267 23.5783C29.4641 23.694 26.8746 30.7464 22.0766 30.4984C19.0168 30.3402 16.9856 27.2268 14.1366 26.0979C10.4275 24.6282 5.70738 27.5025 5.30273 31.4772L5.77908 31.0405C20.1971 34.5611 35.1592 35.2535 49.84 33.0793C46.4425 30.6771 43.0449 28.2749 39.6474 25.8727Z" fill="#666666"/>
<path d="M135.019 46.9156C133.464 45.816 131.762 44.6694 129.859 44.7152C125.253 44.8261 122.769 51.5895 118.168 51.3517C115.234 51.2 113.286 48.2141 110.554 47.1315C106.996 45.7221 102.47 48.4786 102.082 52.2904L102.539 51.8716C116.366 55.2479 130.715 55.9119 144.794 53.8269C141.535 51.5231 138.277 49.2194 135.019 46.9156Z" fill="#666666"/>
<path d="M57.7222 55.2561C54.9528 53.3483 52.514 53.0577 50.5107 53.5988C50.251 53.1965 49.8868 52.8726 49.4573 52.6619C47.8948 48.7185 43.14 46.3503 39.0594 47.5015C34.9525 48.6602 32.1188 53.2169 32.8916 57.42C33.3705 60.0253 35.0074 62.2812 35.6658 64.8469C36.9403 69.8136 33.8312 75.5029 28.9674 77.1039C33.5725 78.0301 38.6417 75.2125 40.2938 70.8084C41.0962 68.6692 41.1446 66.3336 41.2466 64.0507C41.3485 61.7678 41.5323 59.4162 42.5652 57.3786C43.2575 55.9811 44.4074 54.8636 45.823 54.2127C45.6962 54.6054 45.6645 55.0227 45.7305 55.4301C45.7965 55.8375 45.9582 56.2233 46.2024 56.5558C45.1224 57.9109 44.5346 59.3764 44.5346 60.254C42.291 64.3612 45.4993 67.8891 49.5999 70.1362C51.2354 71.0373 53.1239 71.367 54.9673 71.0735L55.1388 70.34L55.3713 71.0008L56.1472 73.2159C57.0423 73.6496 57.9296 74.1251 58.8092 74.6422C58.475 73.0704 58.2047 71.5014 58.0186 69.9674C57.7611 67.8796 58.6589 64.7712 59.3065 62.881C59.7081 61.716 59.9141 60.4925 59.9164 59.26V59.2061L60.547 61.235L62.8427 60.254C62.4156 57.8002 62.8427 55.0145 57.7222 55.2561Z" fill="#2F2E41"/>
<path d="M138.185 187.098L137.334 187.292C137.908 189.164 138.216 191.108 138.246 193.066C138.268 194.042 138.212 195.018 138.079 195.985C137.978 196.672 137.789 197.459 137.109 197.78C136.602 198.019 137.044 198.772 137.549 198.534C138.316 198.172 138.689 197.362 138.857 196.57C139.047 195.549 139.135 194.511 139.119 193.472C139.128 191.312 138.813 189.164 138.185 187.098Z" fill="#3F3D56"/>
<path d="M137.7 199C137.7 199 134.583 191.314 143.934 185.55L137.7 199Z" fill="#3F3D56"/>
<path d="M138.695 198.86C138.695 198.86 137.744 193.382 130.384 193.429L138.695 198.86Z" fill="#3F3D56"/>
<path d="M138.11 188.42C139.554 188.42 140.725 187.247 140.725 185.8C140.725 184.354 139.554 183.181 138.11 183.181C136.665 183.181 135.494 184.354 135.494 185.8C135.494 187.247 136.665 188.42 138.11 188.42Z" fill="#801E19"/>
<path d="M188.454 199H0.346C0.254404 199 0.166647 198.963 0.101972 198.898C0.0372972 198.833 0.000976562 198.745 0.000976562 198.653C0.000976562 198.562 0.0372972 198.474 0.101972 198.409C0.166647 198.344 0.254404 198.307 0.346 198.307H188.454C188.545 198.307 188.633 198.344 188.698 198.409C188.762 198.474 188.799 198.562 188.799 198.653C188.799 198.745 188.762 198.833 188.698 198.898C188.633 198.963 188.545 199 188.454 199Z" fill="#CACACA"/>
</g>
<defs>
<clipPath id="clip0_34_108">
<rect width="191" height="199" fill="white"/>
</clipPath>
</defs>
</svg>
