<?xml version="1.0" encoding="UTF-8"?>
<svg id="Layer_2" data-name="Layer 2" xmlns="http://www.w3.org/2000/svg" viewBox="0 0 293.25 62.24">
  <defs>
    <style>
      .cls-1 {
        fill: #fff;
      }
    </style>
  </defs>
  <g id="Layer_1-2" data-name="Layer 1">
    <path class="cls-1" d="M23.52,13.28c-1.63.44-3.49.58-5.19,1.12-.36.11-1.03.09-.95.58,8.89,3.58,18.42,5.12,26.57,10.43,23.35,15.23,1.26,45.33-22.94,34.53-4.18-1.87-11.7-8.13-16.08-4.05-1.75,1.63-1.12,4.66-1.68,5.48-.85,1.25-2.41.02-2.59-1.55-1.06-9.25,2.65-21.42,13.22-22.94,7.48-1.08,12.5,1.73,17.49,6.9,3.22,3.34,8.67,13.02,14.09,9.67,6.16-3.82-3.52-10.14-6.7-11.94C24.58,33.55,1.26,34.13,0,13.3L51.02,0c2.6-.18,5.46,2.75,7.97,3.39-.05.51-.5.53-.87.66-2.01.74-4.82,1.14-6.98,1.72-9.2,2.46-18.47,5.05-27.62,7.5Z"/>
    <polygon class="cls-1" points="157.53 22.83 165.03 22.83 165.03 57.96 157.87 57.96 157.87 35.11 149.68 49.77 140.82 36.13 140.82 57.96 133.66 57.96 133.66 23.34 134.17 22.83 140.31 22.83 149.18 37.49 157.53 22.83"/>
    <polygon class="cls-1" points="67.85 22.83 67.85 36.81 80.12 36.81 80.12 22.83 86.94 22.83 86.94 57.96 80.12 57.96 80.12 42.95 67.85 42.95 67.85 57.96 61.03 57.96 61.03 22.83 67.85 22.83"/>
    <path class="cls-1" d="M94.79,57.96l11.94-35.12,7.3-.02,12.47,35.14h-7.84l-2.37-7.35-11.99.04-2.35,7.65c-.24.01-.42-.35-.51-.35h-6.65ZM114.22,43.97l-3.92-11.94-3.92,11.94h7.84Z"/>
    <path class="cls-1" d="M261.19,57.96l12.47-35.14,7.3.02,12.28,35.12h-7.84l-2.35-7.3-11.99-.05-2.37,7.69c-.35.13-.72-.34-.85-.34h-6.65ZM280.97,43.97l-3.75-11.93c-.48.04-.54.5-.69.84-1.45,3.14-2.11,7.77-3.4,11.09h7.84Z"/>
    <path class="cls-1" d="M175.94,47.04l4.33,3.68c3.71,2.51,16.06,2.53,14.01-4.47-.81-2.78-8.97-2.86-11.6-3.74-5.43-1.82-7.46-6.33-6.59-11.86,1.51-9.54,15.25-10.09,21.85-5.78l-.18,7.85c-2.78-3.03-6.96-4.54-11.08-4.09s-5.65,5.1-1.88,6.99c5.45,2.74,15.38.34,16.37,9.89,1.44,14.03-16.24,15.98-25.23,9.88v-8.35Z"/>
    <path class="cls-1" d="M236.13,22.83l7.5,14.67,6.82-14.67h8.35c-1.25,1.78-2.53,3.54-3.59,5.45-1.67,3.04-7.76,14.92-8.27,17.65-.44,2.38-.18,7.53-.1,10.17.02.66.26,1.23.36,1.86h-7.84c-.12-3.6,1.06-8.85.18-12.29-1.13-4.39-5.56-10.51-7.16-15l-4.95-7.84h8.7Z"/>
    <rect class="cls-1" x="211.75" y="22.83" width="7.5" height="35.12"/>
    <path class="cls-1" d="M27.5,11c6.86-1.84,13.81-3.78,20.7-5.62-1.44,10.16-14.26,13.43-20.7,5.62Z"/>
  </g>
</svg>